<mxfile host="app.diagrams.net" modified="2024-05-15T09:40:19.088Z" agent="Mozilla/5.0 (Windows NT 10.0; Win64; x64) AppleWebKit/537.36 (KHTML, like Gecko) Chrome/124.0.0.0 Safari/537.36" version="24.3.1" etag="bfhv_4XRm9banr2eEK-k" type="github">
  <diagram name="Page-1" id="rPTGxyOM4u-Gsx_qya5J">
    <mxGraphModel>
      <root>
        <mxCell id="0" />
        <mxCell id="1" parent="0" />
      </root>
    </mxGraphModel>
  </diagram>
</mxfile>
